<?xml version="1.0" encoding="UTF-8"?>
<!-- Generator: Adobe Illustrator 15.1.0, SVG Export Plug-In . SVG Version: 6.00 Build 0)  -->
<!DOCTYPE svg PUBLIC "-//W3C//DTD SVG 1.1//EN" "http://www.w3.org/Graphics/SVG/1.1/DTD/svg11.dtd">
<svg version="1.1" xmlns="http://www.w3.org/2000/svg" xmlns:xlink="http://www.w3.org/1999/xlink" x="0px" y="0px" width="860px" height="500px" viewBox="0 0 860 500" enable-background="new 0 0 860 500" xml:space="preserve">
<g id="grid_and_ticks">
	<path fill="none" stroke="#000000" stroke-miterlimit="10" d="M23.944,257.152"/>
	<path fill="none" stroke="#000000" stroke-miterlimit="10" d="M23.944,287.152"/>
	<path fill="none" stroke="#000000" stroke-miterlimit="10" d="M23.944,317.152"/>
	<path fill="none" stroke="#000000" stroke-miterlimit="10" d="M23.944,347.152"/>
	<path fill="none" stroke="#000000" stroke-miterlimit="10" d="M23.944,377.152"/>
	<path fill="none" stroke="#000000" stroke-miterlimit="10" d="M85.944,397.152"/>
</g>
<g id="plots">
</g>
<g id="axis_and_labels">
	<rect x="78" y="3" fill="#DEFFE3" width="779" height="436"/>
	<rect x="142" y="3" fill="#EBF1FF" width="146" height="436"/>
	<rect x="460" y="3" fill="#EBF1FF" width="327" height="434"/>
	<text transform="matrix(1 0 0 1 443 490)"><tspan x="0" y="0" fill="#C1272D" font-family="'Times-Roman'" font-size="24">heat (+</tspan><tspan x="67.5" y="0" fill="#C1272D" font-family="'Times-Italic'" font-size="24">q</tspan><tspan x="79.5" y="0" fill="#C1272D" font-family="'Times-Roman'" font-size="24">)</tspan></text>
	<text transform="matrix(4.489659e-11 -1 1 4.489659e-11 20.9438 302.6523)" font-family="'Times-Roman'" font-size="24">temperature</text>
	<g>
		<g>
			<line fill="none" stroke="#000000" stroke-width="2" stroke-miterlimit="10" x1="15" y1="180" x2="15" y2="122"/>
			<g>
				<polygon points="15,115 19.065,124.949 15,122.588 10.936,124.949     "/>
			</g>
		</g>
	</g>
	<line fill="none" stroke="#000000" stroke-width="2" stroke-miterlimit="10" x1="15" y1="375" x2="15" y2="310"/>
	<g>
		<g>
			<line fill="none" stroke="#C1272D" stroke-width="2" stroke-miterlimit="10" x1="543" y1="484" x2="587" y2="484"/>
			<g>
				<polygon fill="#C1272D" points="594,484 584.051,488.065 586.412,484 584.051,479.936     "/>
			</g>
		</g>
	</g>
	<line fill="none" stroke="#C1272D" stroke-width="2" stroke-miterlimit="10" x1="393" y1="484" x2="437" y2="484"/>
	<text transform="matrix(1 0 0 1 139 490)"><tspan x="0" y="0" fill="#0071BC" font-family="'Times-Roman'" font-size="24">cool (–</tspan><tspan x="67.312" y="0" fill="#0071BC" font-family="'Times-Italic'" font-size="24">q</tspan><tspan x="79.312" y="0" fill="#0071BC" font-family="'Times-Roman'" font-size="24">)</tspan></text>
	<line fill="none" stroke="#0071BC" stroke-width="2" stroke-miterlimit="10" x1="231" y1="485" x2="250" y2="485"/>
	<g>
		<g>
			<line fill="none" stroke="#0071BC" stroke-width="2" stroke-miterlimit="10" x1="112" y1="484" x2="135" y2="484"/>
			<g>
				<polygon fill="#0071BC" points="114.778,487.703 113.205,484 114.778,480.297 106,484     "/>
			</g>
		</g>
	</g>
	<g>
		<g>
			<line fill="none" stroke="#808080" stroke-width="3" stroke-miterlimit="10" x1="80" y1="316.5" x2="81" y2="316.5"/>
			
				<line fill="none" stroke="#808080" stroke-width="3" stroke-miterlimit="10" stroke-dasharray="3,3" x1="84" y1="316.5" x2="140" y2="316.5"/>
			<polyline fill="none" stroke="#808080" stroke-width="3" stroke-miterlimit="10" points="141.5,316.5 143,316.5 143,318    "/>
			
				<line fill="none" stroke="#808080" stroke-width="3" stroke-miterlimit="10" stroke-dasharray="3,3" x1="142.5" y1="321" x2="142.5" y2="436"/>
			<line fill="none" stroke="#808080" stroke-width="3" stroke-miterlimit="10" x1="142.5" y1="438" x2="142.5" y2="439"/>
		</g>
	</g>
	<g>
		<g>
			<line fill="none" stroke="#808080" stroke-width="3" stroke-miterlimit="5" x1="80" y1="136.5" x2="82" y2="136.5"/>
			
				<line fill="none" stroke="#808080" stroke-width="3" stroke-miterlimit="5" stroke-dasharray="3,3" x1="85" y1="136.5" x2="457" y2="136.5"/>
			<polyline fill="none" stroke="#808080" stroke-width="3.2849" stroke-miterlimit="5" points="458.357,136.5 460,136.5      460,138.143    "/>
			
				<line fill="none" stroke="#808080" stroke-width="3" stroke-miterlimit="5" stroke-dasharray="3,3" x1="459.5" y1="141" x2="459.5" y2="436"/>
			<line fill="none" stroke="#808080" stroke-width="3" stroke-miterlimit="5" x1="459.5" y1="437" x2="459.5" y2="439"/>
		</g>
	</g>
	<g>
		<g>
			<line fill="none" stroke="#009245" stroke-width="3" stroke-miterlimit="5" x1="286.5" y1="316" x2="286.5" y2="318"/>
			
				<line fill="none" stroke="#009245" stroke-width="3" stroke-miterlimit="5" stroke-dasharray="3,3" x1="286.5" y1="320" x2="286.5" y2="436"/>
			<line fill="none" stroke="#009245" stroke-width="3" stroke-miterlimit="5" x1="286.5" y1="438" x2="286.5" y2="439"/>
		</g>
	</g>
	<g>
		<g>
			<line fill="none" stroke="#808080" stroke-width="3" stroke-miterlimit="5" x1="786.5" y1="137" x2="786.5" y2="138"/>
			
				<line fill="none" stroke="#808080" stroke-width="3" stroke-miterlimit="5" stroke-dasharray="3,3" x1="786.5" y1="141" x2="786.5" y2="436"/>
			<line fill="none" stroke="#808080" stroke-width="3" stroke-miterlimit="5" x1="786.5" y1="437" x2="786.5" y2="439"/>
		</g>
	</g>
	<path fill="none" stroke="#000000" stroke-width="2" stroke-miterlimit="10" d="M117.818,31"/>
	<line fill="none" stroke="#304285" stroke-width="4" stroke-miterlimit="10" x1="627" y1="128" x2="623" y2="144"/>
	<line fill="none" stroke="#304285" stroke-width="4" stroke-miterlimit="10" x1="637" y1="128" x2="633" y2="144"/>
	<line fill="none" stroke="#000000" stroke-width="4" stroke-miterlimit="10" x1="627" y1="430" x2="623" y2="446"/>
	<line fill="none" stroke="#000000" stroke-width="4" stroke-miterlimit="10" x1="637" y1="430" x2="633" y2="446"/>
	<text transform="matrix(1 0 0 1 435.6719 460)" font-family="'Times-Roman'" font-size="18">+418 J</text>
	<text transform="matrix(1 0 0 1 275.748 460)" font-family="'Times-Roman'" font-size="18">0 J</text>
	<text transform="matrix(1 0 0 1 119.2476 460)" font-family="'Times-Roman'" font-size="18">–334 J</text>
	<text transform="matrix(1 0 0 1 757.1719 460)" font-family="'Times-Roman'" font-size="18">+2678 J</text>
	<text transform="matrix(1 0 0 1 46.7959 323)" font-family="'Times-Roman'" font-size="18">0°C</text>
	<text transform="matrix(1 0 0 1 28.7959 142)" font-family="'Times-Roman'" font-size="18">100°C</text>
	<g>
		<g>
			<path fill="none" stroke="#304285" stroke-width="5" stroke-miterlimit="10" d="M635,136.5h140.328     c7.244,0,13.835-3.176,19.385-13.963l49.191-102.799"/>
			<g>
				<polygon fill="#304285" points="850,7 848.745,28.459 843.449,20.69 834.078,21.44     "/>
			</g>
		</g>
	</g>
	<g>
		<g>
			<path fill="none" stroke="#304285" stroke-width="5" stroke-miterlimit="10" d="M96.357,419.935l38.07-92.838     c4.115-8.008,11.107-11.597,18.352-11.597h127.347c7.244,0,11.591-2.785,15.938-7.28l155.858-163.166     c5.435-6.743,8.694-8.554,15.939-8.554H626"/>
			<g>
				<polygon fill="#304285" points="91,433 106.073,417.674 96.758,418.958 91.028,411.505     "/>
			</g>
		</g>
	</g>
	
		<text transform="matrix(0.6909 -0.7229 0.7229 0.6909 326.8154 298.3965)" fill="#2E3192" font-family="'Times-Roman'" font-size="14">water heating</text>
	<text transform="matrix(1 0 0 1 191.7773 330)" fill="#2E3192" font-family="'Times-Roman'" font-size="14">water freezing</text>
	<text transform="matrix(1 0 0 1 510.8711 152)" fill="#2E3192" font-family="'Times-Roman'" font-size="14">water boiling</text>
	
		<text transform="matrix(0.368 -0.9298 0.9298 0.368 102.6279 383.7373)" fill="#2E3192" font-family="'Times-Roman'" font-size="14">ice cooling</text>
	
		<text transform="matrix(0.4313 -0.9022 0.9022 0.4313 786.3164 122.8984)" fill="#2E3192" font-family="'Times-Roman'" font-size="14">steam heating</text>
	<g opacity="0.3">
		<g>
			<line fill="none" stroke="#2E3192" stroke-width="4" stroke-miterlimit="10" x1="590" y1="149" x2="711" y2="149"/>
			<g>
				<polygon fill="#2E3192" points="707.466,153.443 709.354,149 707.466,144.557 718,149     "/>
			</g>
		</g>
	</g>
	<g opacity="0.3">
		<g>
			
				<line fill="none" stroke="#2E3192" stroke-width="4" stroke-miterlimit="10" x1="379.665" y1="237.33" x2="412.068" y2="203.195"/>
			<g>
				<polygon fill="#2E3192" points="412.971,208.699 411.048,204.271 406.524,202.58 417,198     "/>
			</g>
		</g>
	</g>
	<g opacity="0.3">
		<g>
			<line fill="none" stroke="#2E3192" stroke-width="4" stroke-miterlimit="10" x1="98.665" y1="385.33" x2="91.708" y2="402.368"/>
			<g>
				<polygon fill="#2E3192" points="88.868,397.567 92.269,400.995 97.096,400.928 89,409     "/>
			</g>
		</g>
	</g>
	<g opacity="0.3">
		<g>
			<line fill="none" stroke="#2E3192" stroke-width="4" stroke-miterlimit="10" x1="819.665" y1="50.33" x2="827.975" y2="32.494"/>
			<g>
				<polygon fill="#2E3192" points="830.579,37.425 827.349,33.837 822.523,33.672 831,26     "/>
			</g>
		</g>
	</g>
	<g opacity="0.3">
		<g>
			<line fill="none" stroke="#2E3192" stroke-width="4" stroke-miterlimit="10" x1="189" y1="326" x2="162" y2="326"/>
			<g>
				<polygon fill="#2E3192" points="165.534,321.557 163.646,326 165.534,330.443 155,326     "/>
			</g>
		</g>
	</g>
	<line fill="none" stroke="#000000" stroke-width="4" stroke-miterlimit="10" x1="635" y1="438" x2="857" y2="438"/>
	<polyline fill="none" stroke="#000000" stroke-width="4" stroke-miterlimit="10" points="79,2 79,439 625,439  "/>
	<polygon fill="#009245" points="285.5,479.259 287.365,485 293.401,485 288.518,488.68 290.383,494.486 285.5,490.971    280.616,494.535 282.481,488.672 277.598,485 283.635,485  "/>
	<text transform="matrix(1 0 0 1 269.5049 476)" fill="#009245" font-family="'Times-Roman'" font-size="18">start</text>
	<ellipse fill="#FFFFFF" stroke="#B8CDD6" stroke-miterlimit="10" cx="618.5" cy="240.5" rx="50.5" ry="25.5"/>
	<ellipse fill="#FFFFFF" stroke="#B8CDD6" stroke-miterlimit="10" cx="396.5" cy="296" rx="35.5" ry="17"/>
	<ellipse fill="#FFFFFF" stroke="#B8CDD6" stroke-width="0.81" stroke-miterlimit="10" cx="110" cy="221.5" rx="24" ry="16.5"/>
	<ellipse fill="#FFFFFF" stroke="#B8CDD6" stroke-miterlimit="10" cx="215" cy="221.5" rx="45" ry="23.5"/>
	<ellipse fill="#FFFFFF" stroke="#B8CDD6" stroke-miterlimit="10" cx="822.5" cy="222.5" rx="31.5" ry="19.5"/>
	<text transform="matrix(1 0 0 1 575.9863 239)"><tspan x="0" y="0" fill="#441766" font-family="'Helvetica'" font-size="14">water / steam</tspan><tspan x="19.065" y="18" fill="#441766" font-family="'Helvetica'" font-size="14">mixture</tspan></text>
	<text transform="matrix(1 0 0 1 185.0996 219)"><tspan x="0" y="0" fill="#441766" font-family="'Helvetica'" font-size="14">ice / water</tspan><tspan x="8.952" y="18" fill="#441766" font-family="'Helvetica'" font-size="14">mixture</tspan></text>
	<text transform="matrix(1 0 0 1 373.9922 301)" fill="#441766" font-family="'Helvetica'" font-size="18">water</text>
	<text transform="matrix(1 0 0 1 98.4951 228)" fill="#441766" font-family="'Helvetica'" font-size="18">ice</text>
	<text transform="matrix(1 0 0 1 800.4922 227)" fill="#441766" font-family="'Helvetica'" font-size="18">steam</text>
</g>
</svg>